<svg width="3503" height="853" viewBox="0 0 3503 853" fill="none" xmlns="http://www.w3.org/2000/svg">
<path d="M855.7 124.887C761.437 294.541 686.026 398.219 497.5 483.046C516.353 426.495 528.921 388.794 554.058 351.093C591.763 294.541 614.539 271.268 648.321 237.99C733.158 172.013 761.437 153.162 855.7 124.887Z" fill="#A0C16C"/>
<path d="M824.68 257.737C845.465 314.669 850.262 382.536 841.752 445.976C823.835 579.553 756.535 690.687 633.444 728.334C575.157 746.162 552.368 688.667 491.418 690.687C430.468 692.706 415.666 737.747 368.325 728.334C288.995 712.562 221.776 658.781 178.956 568.331C103.209 408.327 131.611 154.206 302.047 125.97C376.866 113.575 415.806 211.837 500.884 201.266C576.633 191.854 586.101 116.558 671.32 125.97C696.295 128.729 718.335 136.019 737.598 146.93" stroke="#F97200" stroke-width="100"/>
<path d="M1317.3 503.4V677H1203.9V502L1014.2 187H1134.6L1265.5 404.7L1396.4 187H1507.7L1317.3 503.4ZM1653.55 294.8C1711.88 294.8 1756.68 308.8 1787.95 336.8C1819.21 364.333 1834.85 406.1 1834.85 462.1V677H1732.65V630.1C1712.11 665.1 1673.85 682.6 1617.85 682.6C1588.91 682.6 1563.71 677.7 1542.25 667.9C1521.25 658.1 1505.15 644.567 1493.95 627.3C1482.75 610.033 1477.15 590.433 1477.15 568.5C1477.15 533.5 1490.21 505.967 1516.35 485.9C1542.95 465.833 1583.78 455.8 1638.85 455.8H1725.65C1725.65 432 1718.41 413.8 1703.95 401.2C1689.48 388.133 1667.78 381.6 1638.85 381.6C1618.78 381.6 1598.95 384.867 1579.35 391.4C1560.21 397.467 1543.88 405.867 1530.35 416.6L1491.15 340.3C1511.68 325.833 1536.18 314.633 1564.65 306.7C1593.58 298.767 1623.21 294.8 1653.55 294.8ZM1645.15 609.1C1663.81 609.1 1680.38 604.9 1694.85 596.5C1709.31 587.633 1719.58 574.8 1725.65 558V519.5H1650.75C1605.95 519.5 1583.55 534.2 1583.55 563.6C1583.55 577.6 1588.91 588.8 1599.65 597.2C1610.85 605.133 1626.01 609.1 1645.15 609.1ZM2156.28 294.8C2191.28 294.8 2223.01 302.967 2251.48 319.3C2280.41 335.167 2303.04 357.8 2319.38 387.2C2335.71 416.133 2343.88 449.967 2343.88 488.7C2343.88 527.433 2335.71 561.5 2319.38 590.9C2303.04 619.833 2280.41 642.467 2251.48 658.8C2223.01 674.667 2191.28 682.6 2156.28 682.6C2108.21 682.6 2070.41 667.433 2042.88 637.1V812.8H1933.68V300.4H2037.98V343.8C2065.04 311.133 2104.48 294.8 2156.28 294.8ZM2137.38 593C2165.38 593 2188.24 583.667 2205.98 565C2224.18 545.867 2233.28 520.433 2233.28 488.7C2233.28 456.967 2224.18 431.767 2205.98 413.1C2188.24 393.967 2165.38 384.4 2137.38 384.4C2109.38 384.4 2086.28 393.967 2068.08 413.1C2050.34 431.767 2041.48 456.967 2041.48 488.7C2041.48 520.433 2050.34 545.867 2068.08 565C2086.28 583.667 2109.38 593 2137.38 593ZM2639.58 294.8C2674.58 294.8 2706.31 302.967 2734.78 319.3C2763.71 335.167 2786.34 357.8 2802.68 387.2C2819.01 416.133 2827.18 449.967 2827.18 488.7C2827.18 527.433 2819.01 561.5 2802.68 590.9C2786.34 619.833 2763.71 642.467 2734.78 658.8C2706.31 674.667 2674.58 682.6 2639.58 682.6C2591.51 682.6 2553.71 667.433 2526.18 637.1V812.8H2416.98V300.4H2521.28V343.8C2548.34 311.133 2587.78 294.8 2639.58 294.8ZM2620.68 593C2648.68 593 2671.54 583.667 2689.28 565C2707.48 545.867 2716.58 520.433 2716.58 488.7C2716.58 456.967 2707.48 431.767 2689.28 413.1C2671.54 393.967 2648.68 384.4 2620.68 384.4C2592.68 384.4 2569.58 393.967 2551.38 413.1C2533.64 431.767 2524.78 456.967 2524.78 488.7C2524.78 520.433 2533.64 545.867 2551.38 565C2569.58 583.667 2592.68 593 2620.68 593ZM2900.28 157.6H3009.48V677H2900.28V157.6ZM3479.73 490.1C3479.73 491.5 3479.03 501.3 3477.63 519.5H3192.73C3197.86 542.833 3209.99 561.267 3229.13 574.8C3248.26 588.333 3272.06 595.1 3300.53 595.1C3320.13 595.1 3337.39 592.3 3352.33 586.7C3367.73 580.633 3381.96 571.3 3395.03 558.7L3453.13 621.7C3417.66 662.3 3365.86 682.6 3297.73 682.6C3255.26 682.6 3217.69 674.433 3185.03 658.1C3152.36 641.3 3127.16 618.2 3109.43 588.8C3091.69 559.4 3082.83 526.033 3082.83 488.7C3082.83 451.833 3091.46 418.7 3108.73 389.3C3126.46 359.433 3150.49 336.333 3180.83 320C3211.63 303.2 3245.93 294.8 3283.73 294.8C3320.59 294.8 3353.96 302.733 3383.83 318.6C3413.69 334.467 3437.03 357.333 3453.83 387.2C3471.09 416.6 3479.73 450.9 3479.73 490.1ZM3284.43 377.4C3259.69 377.4 3238.93 384.4 3222.13 398.4C3205.33 412.4 3195.06 431.533 3191.33 455.8H3376.83C3373.09 432 3362.83 413.1 3346.03 399.1C3329.23 384.633 3308.69 377.4 3284.43 377.4Z" fill="#F97200"/>
</svg>
